<svg width="24" height="24" viewBox="0 0 24 24" fill="none" xmlns="http://www.w3.org/2000/svg">
<path fill-rule="evenodd" clip-rule="evenodd" d="M20.1011 4.16279C18.7406 2.80234 17.0593 3.21998 15.9587 3.77026C15.392 4.05363 14.9056 4.40239 14.5654 4.67457C14.3938 4.81186 14.2557 4.93259 14.1592 5.02033C14.1109 5.06426 14.0728 5.10011 14.0459 5.12585L14.0405 5.13105C14.0261 5.14346 14.012 5.1565 13.9983 5.17019C13.9873 5.18122 13.9766 5.19252 13.9664 5.20406L4.92745 14.243C4.19483 14.9757 3.56508 15.9149 3.37079 17.0414C3.28518 17.5378 3.22122 18.129 3.26325 18.6913C3.30379 19.2337 3.4524 19.8809 3.91772 20.3462C4.38305 20.8115 5.03023 20.9601 5.57261 21.0007C6.1349 21.0427 6.72616 20.9787 7.22253 20.8931C8.34906 20.6988 9.28823 20.0691 10.0209 19.3364L19.0929 10.2644L19.0919 10.2634C19.0921 10.2631 19.0924 10.2629 19.0926 10.2626C19.0937 10.2636 19.0937 10.2635 19.0937 10.2635L19.0948 10.2624L19.0979 10.2593L19.1072 10.2499L19.138 10.218C19.1638 10.1911 19.1996 10.153 19.2435 10.1046C19.3313 10.0081 19.452 9.87007 19.5893 9.69846C19.8615 9.35823 20.2102 8.87187 20.4936 8.30512C21.0439 7.20456 21.4615 5.52325 20.1011 4.16279ZM18.5199 8.63112C18.7289 8.35773 18.9627 8.01279 19.152 7.6343C19.6099 6.7185 19.6963 5.87936 19.0404 5.22345C18.3845 4.56755 17.5454 4.654 16.6296 5.1119C16.2511 5.30114 15.9061 5.53496 15.6327 5.74398L18.5199 8.63112ZM14.5296 6.76218L5.98815 15.3037C5.3927 15.8992 4.97387 16.5721 4.84896 17.2964C4.77341 17.7344 4.72997 18.1901 4.75908 18.5795C4.78967 18.9888 4.89073 19.1979 4.97839 19.2855C5.06605 19.3732 5.27514 19.4743 5.68441 19.5048C6.07375 19.5339 6.52948 19.4905 6.9675 19.4149C7.69179 19.29 8.36476 18.8712 8.96017 18.2758L17.5017 9.73424L14.5296 6.76218Z" fill="white"/>
</svg>
